<svg xmlns="http://www.w3.org/2000/svg" id="Слой_1" data-name="Слой 1" viewBox="0 0 400 400"><defs><style>.cls-1{fill:#fff;}</style></defs><title>socials</title><path class="cls-1" d="M200,52c-40.2,0-45.24.17-61,.89S112.45,56.12,103,59.78a75.65,75.65,0,0,0-43.3,43.28c-3.67,9.41-6.17,20.17-6.88,35.92S52,159.82,52,200s.18,45.23.89,61,3.22,26.51,6.88,35.93A75.8,75.8,0,0,0,103,340.25c9.41,3.66,20.17,6.15,35.93,6.87s20.82.9,61,.9,45.23-.18,61-.9,26.53-3.21,35.94-6.87A75.93,75.93,0,0,0,340.21,297c3.63-9.42,6.13-20.17,6.87-35.92s.9-20.82.9-61-.19-45.24-.9-61-3.24-26.51-6.87-35.92a72.74,72.74,0,0,0-17.09-26.22,72.18,72.18,0,0,0-26.21-17.06c-9.43-3.66-20.19-6.16-36-6.88s-20.81-.89-61-.89ZM186.71,78.68c3.94,0,8.34,0,13.28,0,39.51,0,44.2.14,59.8.85,14.43.66,22.26,3.07,27.48,5.1a49.06,49.06,0,0,1,28.09,28.09c2,5.21,4.44,13,5.09,27.47.71,15.6.87,20.29.87,59.79s-.16,44.18-.87,59.79c-.66,14.43-3.07,22.26-5.09,27.47a49.11,49.11,0,0,1-28.09,28.07c-5.21,2-13,4.44-27.48,5.1-15.6.71-20.29.86-59.8.86s-44.21-.15-59.81-.86c-14.43-.67-22.26-3.08-27.48-5.1a49.06,49.06,0,0,1-28.1-28.08c-2-5.21-4.44-13.05-5.1-27.48-.71-15.6-.85-20.29-.85-59.81s.14-44.19.85-59.79c.66-14.43,3.07-22.26,5.1-27.48a49,49,0,0,1,28.1-28.09c5.21-2,13-4.44,27.48-5.11,13.65-.61,18.94-.8,46.53-.83ZM279,103.25A17.76,17.76,0,1,0,296.75,121,17.76,17.76,0,0,0,279,103.25ZM200,124a76,76,0,1,0,76,76,76,76,0,0,0-76-76Zm0,26.68A49.34,49.34,0,1,1,150.65,200,49.33,49.33,0,0,1,200,150.68Z"/></svg>