<svg xmlns="http://www.w3.org/2000/svg" id="Слой_1" data-name="Слой 1" viewBox="0 0 400 400"><defs><style>.cls-1{fill:#5181b8;}.cls-1,.cls-2{fill-rule:evenodd;}.cls-2{fill:#fff;}</style></defs><title>social</title><path class="cls-1" d="M138.37,0H261.18C373.3,0,400,26.7,400,138.82V261.63c0,112.12-26.7,138.82-138.82,138.82H138.37C26.25,400.45-.45,373.75-.45,261.63V138.82C-.45,26.7,26.25,0,138.37,0Z"/><path class="cls-2" d="M327.49,138c1.85-6.19,0-10.73-8.83-10.73h-29.2c-7.42,0-10.85,3.92-12.7,8.25,0,0-14.85,36.2-35.89,59.71-6.8,6.8-9.9,9-13.61,9-1.86,0-4.54-2.17-4.54-8.35V138c0-7.43-2.16-10.73-8.34-10.73H168.49c-4.64,0-7.43,3.44-7.43,6.71,0,7,10.52,8.66,11.6,28.46v43c0,9.42-1.7,11.13-5.41,11.13-9.9,0-34-36.35-48.26-77.95-2.8-8.09-5.61-11.35-13.07-11.35H76.72c-8.34,0-10,3.92-10,8.25,0,7.74,9.9,46.1,46.09,96.83,24.13,34.65,58.13,53.43,89.06,53.43,18.56,0,20.86-4.17,20.86-11.36V248.19c0-8.34,1.76-10,7.63-10,4.34,0,11.76,2.16,29.08,18.87,19.8,19.8,23.07,28.68,34.2,28.68h29.2c8.34,0,12.51-4.17,10.11-12.41-2.63-8.2-12.09-20.1-24.63-34.21-6.81-8.05-17-16.71-20.11-21-4.33-5.57-3.09-8,0-13C288.2,205.09,323.78,155,327.49,138Z"/></svg>